<mxfile host="app.diagrams.net" modified="2024-05-27T22:59:21.214Z" agent="Mozilla/5.0 (Windows NT 10.0; Win64; x64) AppleWebKit/537.36 (KHTML, like Gecko) Chrome/125.0.0.0 Safari/537.36" etag="6ySsPK5P5l0WlyGa5xi7" version="24.4.9" type="device">
  <diagram id="C5RBs43oDa-KdzZeNtuy" name="Page-1">
    <mxGraphModel dx="794" dy="446" grid="1" gridSize="10" guides="1" tooltips="1" connect="1" arrows="1" fold="1" page="1" pageScale="1" pageWidth="827" pageHeight="1169" math="0" shadow="0">
      <root>
        <mxCell id="WIyWlLk6GJQsqaUBKTNV-0" />
        <mxCell id="WIyWlLk6GJQsqaUBKTNV-1" parent="WIyWlLk6GJQsqaUBKTNV-0" />
        <mxCell id="xXuN3Ez5D0Ry_NaOg0Dk-0" value="Actor" style="shape=umlActor;verticalLabelPosition=bottom;verticalAlign=top;html=1;outlineConnect=0;" vertex="1" parent="WIyWlLk6GJQsqaUBKTNV-1">
          <mxGeometry x="160" y="280" width="30" height="60" as="geometry" />
        </mxCell>
        <mxCell id="xXuN3Ez5D0Ry_NaOg0Dk-4" value="Fazer Login no Banco" style="ellipse;whiteSpace=wrap;html=1;" vertex="1" parent="WIyWlLk6GJQsqaUBKTNV-1">
          <mxGeometry x="320" y="410" width="200" height="70" as="geometry" />
        </mxCell>
        <mxCell id="xXuN3Ez5D0Ry_NaOg0Dk-5" value="" style="endArrow=classic;html=1;rounded=0;" edge="1" parent="WIyWlLk6GJQsqaUBKTNV-1" target="xXuN3Ez5D0Ry_NaOg0Dk-4">
          <mxGeometry width="50" height="50" relative="1" as="geometry">
            <mxPoint x="200" y="310" as="sourcePoint" />
            <mxPoint x="430" y="310" as="targetPoint" />
          </mxGeometry>
        </mxCell>
        <mxCell id="xXuN3Ez5D0Ry_NaOg0Dk-8" value="" style="group" vertex="1" connectable="0" parent="WIyWlLk6GJQsqaUBKTNV-1">
          <mxGeometry x="520" y="300" width="250" height="140" as="geometry" />
        </mxCell>
        <mxCell id="xXuN3Ez5D0Ry_NaOg0Dk-6" value="" style="endArrow=none;dashed=1;html=1;dashPattern=1 3;strokeWidth=2;rounded=0;" edge="1" parent="xXuN3Ez5D0Ry_NaOg0Dk-8">
          <mxGeometry width="50" height="50" relative="1" as="geometry">
            <mxPoint y="140" as="sourcePoint" />
            <mxPoint x="130" y="70" as="targetPoint" />
          </mxGeometry>
        </mxCell>
        <mxCell id="xXuN3Ez5D0Ry_NaOg0Dk-7" value="Verifica se a senha e o nome estÃ¡ correto" style="ellipse;whiteSpace=wrap;html=1;" vertex="1" parent="xXuN3Ez5D0Ry_NaOg0Dk-8">
          <mxGeometry x="50" width="200" height="70" as="geometry" />
        </mxCell>
        <mxCell id="xXuN3Ez5D0Ry_NaOg0Dk-2" value="Cadastrar Conta no Banco&amp;nbsp;" style="ellipse;whiteSpace=wrap;html=1;" vertex="1" parent="WIyWlLk6GJQsqaUBKTNV-1">
          <mxGeometry x="360" y="180" width="200" height="70" as="geometry" />
        </mxCell>
        <mxCell id="xXuN3Ez5D0Ry_NaOg0Dk-3" value="" style="endArrow=classic;html=1;rounded=0;entryX=0.047;entryY=0.705;entryDx=0;entryDy=0;entryPerimeter=0;" edge="1" parent="WIyWlLk6GJQsqaUBKTNV-1" target="xXuN3Ez5D0Ry_NaOg0Dk-2">
          <mxGeometry width="50" height="50" relative="1" as="geometry">
            <mxPoint x="200" y="280" as="sourcePoint" />
            <mxPoint x="280" y="220" as="targetPoint" />
          </mxGeometry>
        </mxCell>
        <mxCell id="xXuN3Ez5D0Ry_NaOg0Dk-14" value="Cadastrar Senha e Login" style="ellipse;whiteSpace=wrap;html=1;" vertex="1" parent="WIyWlLk6GJQsqaUBKTNV-1">
          <mxGeometry x="330" y="280" width="200" height="70" as="geometry" />
        </mxCell>
        <mxCell id="xXuN3Ez5D0Ry_NaOg0Dk-15" value="" style="endArrow=classic;html=1;rounded=0;entryX=0;entryY=0.5;entryDx=0;entryDy=0;" edge="1" parent="WIyWlLk6GJQsqaUBKTNV-1" target="xXuN3Ez5D0Ry_NaOg0Dk-14">
          <mxGeometry width="50" height="50" relative="1" as="geometry">
            <mxPoint x="200" y="300" as="sourcePoint" />
            <mxPoint x="280" y="250" as="targetPoint" />
          </mxGeometry>
        </mxCell>
      </root>
    </mxGraphModel>
  </diagram>
</mxfile>
